PathFileType	4	(X/Y/Z)	/Users/niels/Desktop/University/Third Semester/Perception and Action/Exam/Gymnastics Motion Tracking/Code for Gym Tracking/Analyzed Data/Webcam_Backflip/id2_4_pure_Sports2D/id2_4_pure_Sports2D_px_person00.trc
DataRate	CameraRate	NumFrames	NumMarkers	Units	OrigDataRate	OrigDataStartFrame	OrigNumFrames
29.87551867219917	29.87551867219917	9	22	m	29.87551867219917	60	241
Frame#	Time	Hip			RHip			RKnee			RAnkle			RBigToe			RSmallToe			RHeel			LHip			LKnee			LAnkle			LBigToe			LSmallToe			LHeel			Neck			Head			Nose			RShoulder			RElbow			RWrist			LShoulder			LElbow			LWrist		
		X1	Y1	Z1	X2	Y2	Z2	X3	Y3	Z3	X4	Y4	Z4	X5	Y5	Z5	X6	Y6	Z6	X7	Y7	Z7	X8	Y8	Z8	X9	Y9	Z9	X10	Y10	Z10	X11	Y11	Z11	X12	Y12	Z12	X13	Y13	Z13	X14	Y14	Z14	X15	Y15	Z15	X16	Y16	Z16	X17	Y17	Z17	X18	Y18	Z18	X19	Y19	Z19	X20	Y20	Z20	X21	Y21	Z21	X22	Y22	Z22
60	2.0083333333333333	0.9141931341489722	-0.5886326572057401	0.0	0.9186368179665626	-0.5875064865182705	0.0	1.007105053874511	-0.6665486898604293	0.0	0.9588513022147406	-0.7794404788941265	0.0	1.0045098173657205	-0.796893856615485	0.0	0.9921528667423479	-0.8008332041977453	0.0	0.9456913478341077	-0.7908713659103009	0.0	0.9164226384258042	-0.5853740553682658	0.0	0.996519213469578	-0.6652324765761624	0.0	0.9528055671885669	-0.7717125254298589	0.0	0.9996583770098187	-0.7966055601552531	0.0	0.991237479026982	-0.788345300488655	0.0	0.9364803904195127	-0.7818707085318218	0.0	1.0080908834607993	-0.4703469975628914	0.0	1.0665501284538477	-0.4237984928040199	0.0	1.0600923500247281	-0.4554884026245328	0.0	1.0006955079225874	-0.47961432909566076	0.0	0.9335682461789051	-0.5105596072403055	0.0	0.8958975461988944	-0.5621228086988121	0.0	0.9946167007832559	-0.47399678589515903	0.0	0.9297817767920726	-0.5106266450943883	0.0	0.8916413955665686	-0.5558541702678274	0.0
61	2.0418055555555554	0.914631372907046	-0.6126527455114744	0.0	0.9191699597424949	-0.612130862857739	0.0	1.0068807746354713	-0.6900818095289506	0.0	0.9594881483241168	-0.8005177349032301	0.0	1.004791435714679	-0.8152386788388444	0.0	0.9913450452386933	-0.8189788876280848	0.0	0.9465303802162058	-0.8117955949722945	0.0	0.9168965631269175	-0.6098639046720277	0.0	0.9962622500688095	-0.6884137509664223	0.0	0.9521661914849767	-0.7930337825582815	0.0	1.0002805502445902	-0.8180057007643772	0.0	0.9898356548708325	-0.807726944282705	0.0	0.93677856328148	-0.8029642988447316	0.0	1.0046895826836524	-0.4906886068892199	0.0	1.057652560972414	-0.43959898367127803	0.0	1.0544485409557878	-0.47250249275943423	0.0	0.9958776402861952	-0.5039830251161892	0.0	0.9408259985062385	-0.5518077839764506	0.0	0.9222796968203276	-0.6098248299655576	0.0	0.9906638844783332	-0.4975825103052734	0.0	0.9382206900183021	-0.5483681353253635	0.0	0.9184849696049747	-0.6005718275471804	0.0
62	2.075277777777778	0.9170417718502718	-0.6360451204817585	0.0	0.9211376652092121	-0.6360025137318945	0.0	1.0052747312168895	-0.7159247158985687	0.0	0.9599059450574972	-0.8231553591891522	0.0	1.0045531359537874	-0.8364945592384484	0.0	0.9902267633892107	-0.8397491078046336	0.0	0.9468496685839305	-0.8345819195421197	0.0	0.9187819204826316	-0.633720764768812	0.0	0.9941548482264384	-0.7142841949159672	0.0	0.9516604430884756	-0.8165879055119566	0.0	0.99966686959715	-0.8419451364461306	0.0	0.9863685711788222	-0.8300100443681	0.0	0.9367924680623188	-0.8270742364949417	0.0	0.998188629842785	-0.5080194087206055	0.0	1.0444372180426773	-0.451419394544033	0.0	1.045247168122017	-0.48586329499875125	0.0	0.9887213567431309	-0.5249447317518816	0.0	0.9529011312455267	-0.5851080656457356	0.0	0.9569750453310342	-0.6423699416962525	0.0	0.9847078328316413	-0.5185220232593879	0.0	0.9507314439149022	-0.5795091677709021	0.0	0.9530163892176963	-0.6323087585243007	0.0
63	2.10875	0.9207810654631218	-0.6562434243501964	0.0	0.9241507224760251	-0.6564593331739736	0.0	1.0026199763619017	-0.7407949834514895	0.0	0.9599871001053787	-0.8447515393797307	0.0	1.004107510601713	-0.8577467446990099	0.0	0.989656858712304	-0.8604264993275903	0.0	0.9467369904010472	-0.8568093304904673	0.0	0.921511638881682	-0.6542344207091118	0.0	0.990281091953324	-0.7395576169773692	0.0	0.9511370507954671	-0.8394306227031424	0.0	0.998481708148354	-0.8643817799066158	0.0	0.9813738886151935	-0.8520577753735985	0.0	0.9365025226825968	-0.8512258653206295	0.0	0.9890072745714802	-0.5208325027042484	0.0	1.0266924493790728	-0.4583515422535202	0.0	1.0325221267097187	-0.49410764474276164	0.0	0.9800388021953508	-0.5403685776020624	0.0	0.9685608122864057	-0.6051247726404326	0.0	0.9950776305077087	-0.6521439362483732	0.0	0.9773564683172905	-0.5344523747961476	0.0	0.9664186705119174	-0.5983780253373338	0.0	0.9902110309107651	-0.6430250676081615	0.0
64	2.1422222222222222	0.9252134256869808	-0.6703693332552157	0.0	0.9277640896967411	-0.6705735863033334	0.0	0.9991043249770424	-0.7608066096835056	0.0	0.9596660531437773	-0.862301224482194	0.0	1.0032737794824578	-0.8756872603695031	0.0	0.9896231777017638	-0.8779464677498027	0.0	0.9463057042278828	-0.8753996942592397	0.0	0.924844411020685	-0.6684135840263307	0.0	0.9854461231138276	-0.7601354223133009	0.0	0.9505149317224417	-0.8581584118153106	0.0	0.9971167879264562	-0.8813201922134412	0.0	0.9759813573189056	-0.8706310605507147	0.0	0.9359520835973639	-0.8714804584661536	0.0	0.9779635339934161	-0.5276307397861463	0.0	1.0048718858701449	-0.4596522639295909	0.0	1.0167767714191058	-0.49590389505281834	0.0	0.9705352638893036	-0.5481796499026018	0.0	0.9847616891142063	-0.6078828172830265	0.0	1.0288875763230687	-0.6357748214000353	0.0	0.9692470432946774	-0.5430448676908033	0.0	0.9827180555797034	-0.6007637836276739	0.0	1.0231376722359968	-0.6286440998951516	0.0
65	2.1756944444444444	0.929861897662695	-0.6757086670428881	0.0	0.9317007058847894	-0.6756407232216893	0.0	0.9948783957607661	-0.7724031828435748	0.0	0.9590644592881463	-0.8729402997653684	0.0	1.001506049922094	-0.8872781732970606	0.0	0.9892793901823345	-0.8895301637745647	0.0	0.9458036249160399	-0.8872561740600353	0.0	0.9286540640979023	-0.6735158204799652	0.0	0.9806763464795012	-0.7721794994452407	0.0	0.9498472576448257	-0.8696052913970215	0.0	0.9951877309548114	-0.8901520989339637	0.0	0.9712667298675348	-0.882783626781704	0.0	0.9352600331829699	-0.8840168728488422	0.0	0.9657881578262253	-0.5269677209211193	0.0	0.9799085154523006	-0.45456740056843864	0.0	0.998662526341013	-0.4901091267049582	0.0	0.9605395504802972	-0.5466086417427211	0.0	0.997347679915098	-0.59180917057793	0.0	1.0505333805444574	-0.5951504652347057	0.0	0.9604102254820521	-0.5423024863090226	0.0	0.9954512892701358	-0.5849978808170027	0.0	1.0444213504531052	-0.5903474073254087	0.0
66	2.2091666666666665	0.9343559634245702	-0.6702694480755759	0.0	0.935829039301231	-0.6697894153103616	0.0	0.9903869170842517	-0.7730462255008403	0.0	0.9584479167818069	-0.8747384510216869	0.0	0.9983514973119973	-0.8904535571211377	0.0	0.9877533939371507	-0.8932070558034286	0.0	0.9455933472603892	-0.8901917901534231	0.0	0.9326678280730202	-0.6676488939252039	0.0	0.9768015625786577	-0.7729392919145183	0.0	0.9494298603753558	-0.8717043778288746	0.0	0.992203254659538	-0.8898411543414355	0.0	0.9680561817072881	-0.8862527553479768	0.0	0.9347586740335586	-0.8863882852328071	0.0	0.9527593752485937	-0.5177818851055047	0.0	0.9527746957969021	-0.4425657473260597	0.0	0.9786154869741399	-0.47606949187133707	0.0	0.9499365051540432	-0.5346381090207544	0.0	1.0024678183168427	-0.5581881709270482	0.0	1.0550527816325546	-0.5364511708480706	0.0	0.9501704015866977	-0.531046282310049	0.0	1.0004066857409903	-0.5523606832820349	0.0	1.0489381942740457	-0.533804741057246	0.0
67	2.242638888888889	0.9383213361360168	-0.653297409929816	0.0	0.9398936486023782	-0.652519717015596	0.0	0.9867261140636167	-0.7614603704381577	0.0	0.9581983520471177	-0.866902634504978	0.0	0.9940827573049109	-0.8844429155750079	0.0	0.9849856118195482	-0.8879707873219473	0.0	0.946084650882078	-0.8832565536739622	0.0	0.9364301549955858	-0.6503026943295805	0.0	0.9745577185670233	-0.7611288969044788	0.0	0.9497114588757635	-0.8637089142958468	0.0	0.988400551880321	-0.8805042813351205	0.0	0.9668340700811875	-0.8800923512219905	0.0	0.9349791723067042	-0.8779494434939115	0.0	0.9387099763759797	-0.49989456570284213	0.0	0.9241481788088947	-0.4238812104211425	0.0	0.9567467293088421	-0.45404586464449953	0.0	0.9382033739679533	-0.5125477028041406	0.0	0.9979408442679306	-0.5109699930276139	0.0	1.0420553449661718	-0.46788528347123076	0.0	0.9377674432923339	-0.5095240122089005	0.0	0.9953504943808757	-0.5066847762473323	0.0	1.036012673052851	-0.46692375056916924	0.0
68	2.276111111111111	0.9412736595585991	-0.6255783663747195	0.0	0.9432795897070402	-0.6248549431032602	0.0	0.9856542716601395	-0.73754170376988	0.0	0.9589347049806348	-0.8490020182657295	0.0	0.9899457853446505	-0.8693612403169102	0.0	0.981952427841866	-0.8734583992907431	0.0	0.9477081969672565	-0.8660880263704747	0.0	0.939390288500361	-0.6225373114628263	0.0	0.9749610391708011	-0.7368387861375619	0.0	0.951244906338511	-0.8453796744013593	0.0	0.9849663813650043	-0.862887215573016	0.0	0.967788638237462	-0.864609093142648	0.0	0.9365371072731571	-0.8590457232194961	0.0	0.9233492959491263	-0.47431036337100313	0.0	0.8944915114670524	-0.39989862456538044	0.0	0.9330984276802259	-0.42541950917126864	0.0	0.9247428193022181	-0.48215621524401797	0.0	0.9839243064134231	-0.45603799076048684	0.0	1.0151651500917453	-0.39738689478244965	0.0	0.9230434978436517	-0.47963153478136605	0.0	0.9808334275557827	-0.45347353898314074	0.0	1.0092719815761428	-0.3975587555895795	0.0
